<svg xmlns="http://www.w3.org/2000/svg" viewBox="0 0 100 100"><rect width="100" height="100" rx="25" fill="#000"/><g transform="translate(20,20) scale(0.60)"><path d="M47.14,0.00 C50.30,0.09 51.42,-0.34 57.62,0.31 C63.82,0.96 62.40,0.77 67.80,2.16 C73.20,3.55 71.09,2.84 75.63,4.93 C80.17,7.01 79.95,7.16 82.93,9.12 C85.91,11.08 84.68,10.50 85.58,11.46 C86.48,12.43 85.88,6.57 85.94,12.35 C86.01,18.12 85.97,25.01 85.78,30.70 C85.59,36.40 85.31,31.33 85.31,31.33 C85.31,31.33 86.62,32.82 84.24,31.31 C81.85,29.80 82.02,29.10 77.36,26.30 C72.71,23.50 73.17,23.83 68.72,21.98 C64.27,20.12 66.65,21.00 62.54,20.12 C58.43,19.24 59.54,19.32 55.01,19.05 C50.48,18.77 50.93,18.92 47.45,19.20 C43.97,19.48 45.74,19.33 43.41,19.98 C41.09,20.63 41.42,20.58 39.69,21.38 C37.96,22.18 38.89,21.49 37.65,22.64 C36.42,23.79 36.29,23.68 35.57,25.21 C34.85,26.74 35.11,26.41 35.25,27.75 C35.40,29.08 35.28,28.56 36.05,29.67 C36.82,30.77 36.76,30.57 37.81,31.43 C38.85,32.29 37.35,31.55 39.54,32.54 C41.72,33.52 36.26,32.57 45.10,34.71 C53.95,36.84 59.41,37.38 69.03,39.64 C78.65,41.90 73.20,40.73 77.17,42.25 C81.14,43.78 79.58,43.15 82.28,44.73 C84.97,46.31 84.47,46.17 86.16,47.52 C87.84,48.88 86.71,47.80 87.88,49.25 C89.06,50.70 88.90,50.26 90.06,52.36 C91.23,54.46 91.07,54.33 91.77,56.24 C92.47,58.15 92.07,56.93 92.40,58.74 C92.72,60.55 92.74,60.17 92.86,62.27 C92.98,64.37 92.80,65.75 92.80,65.75 C92.80,65.75 92.25,65.72 92.25,65.72 C92.25,65.72 91.34,63.94 89.42,61.85 C87.50,59.75 87.99,60.37 85.85,58.74 C83.71,57.10 84.83,57.80 82.28,56.40 C79.72,55.01 80.61,55.33 77.32,54.08 C74.04,52.83 74.98,53.16 71.33,52.24 C67.68,51.31 69.91,51.74 65.15,51.00 C60.39,50.26 63.78,50.60 55.47,49.77 C47.17,48.94 45.92,49.30 37.46,48.23 C29.01,47.17 31.77,47.34 27.28,46.23 C22.80,45.12 25.30,45.74 22.52,44.54 C19.75,43.33 20.54,43.84 18.03,42.21 C15.52,40.59 15.98,40.85 14.15,39.11 C12.32,37.38 13.07,38.12 11.93,36.42 C10.80,34.73 11.12,35.24 10.38,33.47 C9.63,31.69 9.77,33.11 9.45,30.51 C9.12,27.91 8.88,28.13 9.29,24.79 C9.71,21.45 9.82,22.02 10.84,19.37 C11.86,16.72 11.49,17.82 12.70,15.96 C13.91,14.09 12.45,15.53 14.88,13.15 C17.31,10.77 18.05,10.16 20.79,8.02 C23.54,5.88 21.57,7.32 24.02,6.02 C26.47,4.72 25.03,5.13 28.97,3.70 C32.91,2.26 31.72,2.33 37.15,1.23 C42.59,0.12 44.11,0.38 47.10,0.01 C50.10,-0.36 43.98,-0.09 47.14,0.00 Z M12.42,43.78 C12.59,43.78 12.95,43.79 12.95,43.79 C12.95,43.79 15.07,46.24 16.92,48.02 C18.76,49.81 17.42,48.62 19.11,49.74 C20.79,50.86 19.84,50.51 22.52,51.76 C25.21,53.01 23.29,52.66 28.05,53.91 C32.81,55.15 30.20,54.94 38.38,55.91 C46.56,56.88 46.04,56.22 55.32,57.14 C64.59,58.06 62.42,57.65 69.30,58.99 C76.18,60.33 74.63,60.40 78.25,61.61 C81.86,62.81 79.12,61.75 81.36,63.01 C83.59,64.27 83.50,64.02 85.70,65.80 C87.89,67.59 87.22,66.83 88.68,68.95 C90.14,71.07 89.90,70.53 90.55,72.87 C91.21,75.21 91.23,73.77 90.86,76.75 C90.49,79.72 90.48,79.75 89.31,82.78 C88.15,85.81 88.88,84.42 86.96,86.85 C85.05,89.28 85.35,88.88 82.93,90.88 C80.51,92.88 81.96,91.89 78.90,93.52 C75.83,95.15 77.07,94.77 72.72,96.30 C68.36,97.83 69.19,97.60 64.38,98.62 C59.58,99.63 62.47,99.28 56.70,99.69 C50.93,100.11 51.01,100.09 45.14,100.00 C39.28,99.91 41.90,99.98 37.15,99.39 C32.41,98.79 34.17,99.20 29.32,98.00 C24.47,96.80 25.30,97.10 20.99,95.38 C16.68,93.67 17.98,94.10 14.96,92.29 C11.94,90.48 13.08,91.26 10.93,89.34 C8.77,87.42 8.92,87.50 7.79,85.89 C6.65,84.27 7.34,89.95 7.14,83.97 C6.95,77.99 7.09,71.69 7.14,65.96 C7.19,60.22 7.02,65.46 7.31,64.84 C7.59,64.23 8.08,63.91 8.08,63.91 C8.08,63.91 6.91,62.31 9.62,64.24 C12.33,66.16 12.60,67.12 17.11,70.32 C21.61,73.53 20.25,72.58 24.64,74.93 C29.02,77.29 27.43,76.60 31.74,78.18 C36.05,79.75 35.25,79.40 39.00,80.18 C42.74,80.97 41.40,80.61 44.22,80.80 C47.04,80.98 45.11,81.12 48.41,80.80 C51.70,80.47 52.52,80.27 55.20,79.71 C57.89,79.16 55.90,79.65 57.35,78.95 C58.81,78.24 58.71,78.41 60.04,77.36 C61.38,76.31 61.13,76.46 61.80,75.44 C62.47,74.43 62.14,74.72 62.29,73.98 C62.43,73.25 62.53,73.81 62.28,72.98 C62.03,72.15 62.05,72.09 61.46,71.22 C60.87,70.34 61.50,70.88 60.31,70.07 C59.12,69.27 59.83,69.40 57.51,68.52 C55.18,67.64 57.28,68.05 52.55,67.13 C47.83,66.20 46.85,66.36 41.76,65.44 C36.67,64.51 39.46,65.15 35.58,64.05 C31.70,62.94 32.43,63.27 28.82,61.74 C25.22,60.22 25.93,60.40 23.56,58.96 C21.19,57.51 23.02,58.99 20.91,56.93 C18.80,54.87 18.92,55.40 16.54,52.09 C14.17,48.79 14.23,48.40 12.99,45.91 C11.75,43.42 12.39,43.79 12.39,43.79 C12.39,43.79 12.26,43.78 12.42,43.78 Z" fill="#c9f24a"/></g></svg>